<?xml version="1.0" encoding="UTF-8" standalone="no"?>
<svg xmlns="http://www.w3.org/2000/svg" width="1200" height="600" viewBox="0 0 1200 600" preserveAspectRatio="xMidYMid slice">
  <!-- Dark blue background -->
  <rect width="1200" height="600" fill="#091c3f"/>
  
  <!-- Racing lines -->
  <g opacity="0.15">
    <!-- Horizontal racing stripes -->
    <rect x="0" y="100" width="1200" height="20" fill="#ff3333"/>
    <rect x="0" y="490" width="1200" height="20" fill="#ff3333"/>
    
    <!-- Checkered pattern areas -->
    <g opacity="0.6">
      <!-- Top checkered pattern -->
      <g transform="translate(0, 50)">
        <rect x="0" y="0" width="30" height="30" fill="#ffffff"/>
        <rect x="30" y="0" width="30" height="30" fill="#000000"/>
        <rect x="60" y="0" width="30" height="30" fill="#ffffff"/>
        <rect x="90" y="0" width="30" height="30" fill="#000000"/>
        <rect x="120" y="0" width="30" height="30" fill="#ffffff"/>
        <rect x="150" y="0" width="30" height="30" fill="#000000"/>
        <!-- Repeat for width -->
        <rect x="180" y="0" width="30" height="30" fill="#ffffff"/>
        <rect x="210" y="0" width="30" height="30" fill="#000000"/>
        <rect x="240" y="0" width="30" height="30" fill="#ffffff"/>
        <rect x="270" y="0" width="30" height="30" fill="#000000"/>
        <rect x="300" y="0" width="30" height="30" fill="#ffffff"/>
        <rect x="330" y="0" width="30" height="30" fill="#000000"/>
        <rect x="360" y="0" width="30" height="30" fill="#ffffff"/>
        <rect x="390" y="0" width="30" height="30" fill="#000000"/>
        <rect x="420" y="0" width="30" height="30" fill="#ffffff"/>
        <rect x="450" y="0" width="30" height="30" fill="#000000"/>
        <rect x="480" y="0" width="30" height="30" fill="#ffffff"/>
        <rect x="510" y="0" width="30" height="30" fill="#000000"/>
        <rect x="540" y="0" width="30" height="30" fill="#ffffff"/>
        <rect x="570" y="0" width="30" height="30" fill="#000000"/>
        <rect x="600" y="0" width="30" height="30" fill="#ffffff"/>
        <rect x="630" y="0" width="30" height="30" fill="#000000"/>
        <rect x="660" y="0" width="30" height="30" fill="#ffffff"/>
        <rect x="690" y="0" width="30" height="30" fill="#000000"/>
        <rect x="720" y="0" width="30" height="30" fill="#ffffff"/>
        <rect x="750" y="0" width="30" height="30" fill="#000000"/>
        <rect x="780" y="0" width="30" height="30" fill="#ffffff"/>
        <rect x="810" y="0" width="30" height="30" fill="#000000"/>
        <rect x="840" y="0" width="30" height="30" fill="#ffffff"/>
        <rect x="870" y="0" width="30" height="30" fill="#000000"/>
        <rect x="900" y="0" width="30" height="30" fill="#ffffff"/>
        <rect x="930" y="0" width="30" height="30" fill="#000000"/>
        <rect x="960" y="0" width="30" height="30" fill="#ffffff"/>
        <rect x="990" y="0" width="30" height="30" fill="#000000"/>
        <rect x="1020" y="0" width="30" height="30" fill="#ffffff"/>
        <rect x="1050" y="0" width="30" height="30" fill="#000000"/>
        <rect x="1080" y="0" width="30" height="30" fill="#ffffff"/>
        <rect x="1110" y="0" width="30" height="30" fill="#000000"/>
        <rect x="1140" y="0" width="30" height="30" fill="#ffffff"/>
        <rect x="1170" y="0" width="30" height="30" fill="#000000"/>
        
        <!-- Second row (reversed) -->
        <rect x="0" y="30" width="30" height="30" fill="#000000"/>
        <rect x="30" y="30" width="30" height="30" fill="#ffffff"/>
        <rect x="60" y="30" width="30" height="30" fill="#000000"/>
        <rect x="90" y="30" width="30" height="30" fill="#ffffff"/>
        <rect x="120" y="30" width="30" height="30" fill="#000000"/>
        <rect x="150" y="30" width="30" height="30" fill="#ffffff"/>
        <!-- Repeat for width -->
        <rect x="180" y="30" width="30" height="30" fill="#000000"/>
        <rect x="210" y="30" width="30" height="30" fill="#ffffff"/>
        <rect x="240" y="30" width="30" height="30" fill="#000000"/>
        <rect x="270" y="30" width="30" height="30" fill="#ffffff"/>
        <rect x="300" y="30" width="30" height="30" fill="#000000"/>
        <rect x="330" y="30" width="30" height="30" fill="#ffffff"/>
        <rect x="360" y="30" width="30" height="30" fill="#000000"/>
        <rect x="390" y="30" width="30" height="30" fill="#ffffff"/>
        <rect x="420" y="30" width="30" height="30" fill="#000000"/>
        <rect x="450" y="30" width="30" height="30" fill="#ffffff"/>
        <rect x="480" y="30" width="30" height="30" fill="#000000"/>
        <rect x="510" y="30" width="30" height="30" fill="#ffffff"/>
        <rect x="540" y="30" width="30" height="30" fill="#000000"/>
        <rect x="570" y="30" width="30" height="30" fill="#ffffff"/>
        <rect x="600" y="30" width="30" height="30" fill="#000000"/>
        <rect x="630" y="30" width="30" height="30" fill="#ffffff"/>
        <rect x="660" y="30" width="30" height="30" fill="#000000"/>
        <rect x="690" y="30" width="30" height="30" fill="#ffffff"/>
        <rect x="720" y="30" width="30" height="30" fill="#000000"/>
        <rect x="750" y="30" width="30" height="30" fill="#ffffff"/>
        <rect x="780" y="30" width="30" height="30" fill="#000000"/>
        <rect x="810" y="30" width="30" height="30" fill="#ffffff"/>
        <rect x="840" y="30" width="30" height="30" fill="#000000"/>
        <rect x="870" y="30" width="30" height="30" fill="#ffffff"/>
        <rect x="900" y="30" width="30" height="30" fill="#000000"/>
        <rect x="930" y="30" width="30" height="30" fill="#ffffff"/>
        <rect x="960" y="30" width="30" height="30" fill="#000000"/>
        <rect x="990" y="30" width="30" height="30" fill="#ffffff"/>
        <rect x="1020" y="30" width="30" height="30" fill="#000000"/>
        <rect x="1050" y="30" width="30" height="30" fill="#ffffff"/>
        <rect x="1080" y="30" width="30" height="30" fill="#000000"/>
        <rect x="1110" y="30" width="30" height="30" fill="#ffffff"/>
        <rect x="1140" y="30" width="30" height="30" fill="#000000"/>
        <rect x="1170" y="30" width="30" height="30" fill="#ffffff"/>
      </g>
      
      <!-- Bottom checkered pattern -->
      <g transform="translate(0, 520)">
        <rect x="0" y="0" width="30" height="30" fill="#ffffff"/>
        <rect x="30" y="0" width="30" height="30" fill="#000000"/>
        <rect x="60" y="0" width="30" height="30" fill="#ffffff"/>
        <rect x="90" y="0" width="30" height="30" fill="#000000"/>
        <rect x="120" y="0" width="30" height="30" fill="#ffffff"/>
        <rect x="150" y="0" width="30" height="30" fill="#000000"/>
        <!-- Repeat for width -->
        <rect x="180" y="0" width="30" height="30" fill="#ffffff"/>
        <rect x="210" y="0" width="30" height="30" fill="#000000"/>
        <rect x="240" y="0" width="30" height="30" fill="#ffffff"/>
        <rect x="270" y="0" width="30" height="30" fill="#000000"/>
        <rect x="300" y="0" width="30" height="30" fill="#ffffff"/>
        <rect x="330" y="0" width="30" height="30" fill="#000000"/>
        <rect x="360" y="0" width="30" height="30" fill="#ffffff"/>
        <rect x="390" y="0" width="30" height="30" fill="#000000"/>
        <rect x="420" y="0" width="30" height="30" fill="#ffffff"/>
        <rect x="450" y="0" width="30" height="30" fill="#000000"/>
        <rect x="480" y="0" width="30" height="30" fill="#ffffff"/>
        <rect x="510" y="0" width="30" height="30" fill="#000000"/>
        <rect x="540" y="0" width="30" height="30" fill="#ffffff"/>
        <rect x="570" y="0" width="30" height="30" fill="#000000"/>
        <rect x="600" y="0" width="30" height="30" fill="#ffffff"/>
        <rect x="630" y="0" width="30" height="30" fill="#000000"/>
        <rect x="660" y="0" width="30" height="30" fill="#ffffff"/>
        <rect x="690" y="0" width="30" height="30" fill="#000000"/>
        <rect x="720" y="0" width="30" height="30" fill="#ffffff"/>
        <rect x="750" y="0" width="30" height="30" fill="#000000"/>
        <rect x="780" y="0" width="30" height="30" fill="#ffffff"/>
        <rect x="810" y="0" width="30" height="30" fill="#000000"/>
        <rect x="840" y="0" width="30" height="30" fill="#ffffff"/>
        <rect x="870" y="0" width="30" height="30" fill="#000000"/>
        <rect x="900" y="0" width="30" height="30" fill="#ffffff"/>
        <rect x="930" y="0" width="30" height="30" fill="#000000"/>
        <rect x="960" y="0" width="30" height="30" fill="#ffffff"/>
        <rect x="990" y="0" width="30" height="30" fill="#000000"/>
        <rect x="1020" y="0" width="30" height="30" fill="#ffffff"/>
        <rect x="1050" y="0" width="30" height="30" fill="#000000"/>
        <rect x="1080" y="0" width="30" height="30" fill="#ffffff"/>
        <rect x="1110" y="0" width="30" height="30" fill="#000000"/>
        <rect x="1140" y="0" width="30" height="30" fill="#ffffff"/>
        <rect x="1170" y="0" width="30" height="30" fill="#000000"/>
        
        <!-- Second row (reversed) -->
        <rect x="0" y="30" width="30" height="30" fill="#000000"/>
        <rect x="30" y="30" width="30" height="30" fill="#ffffff"/>
        <rect x="60" y="30" width="30" height="30" fill="#000000"/>
        <rect x="90" y="30" width="30" height="30" fill="#ffffff"/>
        <rect x="120" y="30" width="30" height="30" fill="#000000"/>
        <rect x="150" y="30" width="30" height="30" fill="#ffffff"/>
        <!-- Repeat for width -->
        <rect x="180" y="30" width="30" height="30" fill="#000000"/>
        <rect x="210" y="30" width="30" height="30" fill="#ffffff"/>
        <rect x="240" y="30" width="30" height="30" fill="#000000"/>
        <rect x="270" y="30" width="30" height="30" fill="#ffffff"/>
        <rect x="300" y="30" width="30" height="30" fill="#000000"/>
        <rect x="330" y="30" width="30" height="30" fill="#ffffff"/>
        <rect x="360" y="30" width="30" height="30" fill="#000000"/>
        <rect x="390" y="30" width="30" height="30" fill="#ffffff"/>
        <rect x="420" y="30" width="30" height="30" fill="#000000"/>
        <rect x="450" y="30" width="30" height="30" fill="#ffffff"/>
        <rect x="480" y="30" width="30" height="30" fill="#000000"/>
        <rect x="510" y="30" width="30" height="30" fill="#ffffff"/>
        <rect x="540" y="30" width="30" height="30" fill="#000000"/>
        <rect x="570" y="30" width="30" height="30" fill="#ffffff"/>
        <rect x="600" y="30" width="30" height="30" fill="#000000"/>
        <rect x="630" y="30" width="30" height="30" fill="#ffffff"/>
        <rect x="660" y="30" width="30" height="30" fill="#000000"/>
        <rect x="690" y="30" width="30" height="30" fill="#ffffff"/>
        <rect x="720" y="30" width="30" height="30" fill="#000000"/>
        <rect x="750" y="30" width="30" height="30" fill="#ffffff"/>
        <rect x="780" y="30" width="30" height="30" fill="#000000"/>
        <rect x="810" y="30" width="30" height="30" fill="#ffffff"/>
        <rect x="840" y="30" width="30" height="30" fill="#000000"/>
        <rect x="870" y="30" width="30" height="30" fill="#ffffff"/>
        <rect x="900" y="30" width="30" height="30" fill="#000000"/>
        <rect x="930" y="30" width="30" height="30" fill="#ffffff"/>
        <rect x="960" y="30" width="30" height="30" fill="#000000"/>
        <rect x="990" y="30" width="30" height="30" fill="#ffffff"/>
        <rect x="1020" y="30" width="30" height="30" fill="#000000"/>
        <rect x="1050" y="30" width="30" height="30" fill="#ffffff"/>
        <rect x="1080" y="30" width="30" height="30" fill="#000000"/>
        <rect x="1110" y="30" width="30" height="30" fill="#ffffff"/>
        <rect x="1140" y="30" width="30" height="30" fill="#000000"/>
        <rect x="1170" y="30" width="30" height="30" fill="#ffffff"/>
      </g>
    </g>
    
    <!-- Curved racing track lines -->
    <path d="M -100,200 C 200,100 450,500 1300,300" stroke="#ff3333" stroke-width="8" fill="none" opacity="0.3"/>
    <path d="M -100,220 C 200,120 450,520 1300,320" stroke="#ffffff" stroke-width="5" fill="none" opacity="0.1" stroke-dasharray="20, 20"/>
    <path d="M -100,250 C 200,150 450,550 1300,350" stroke="#ffffff" stroke-width="5" fill="none" opacity="0.1" stroke-dasharray="20, 20"/>
    
    <path d="M 1300,400 C 800,500 500,100 -100,300" stroke="#ff3333" stroke-width="8" fill="none" opacity="0.3"/>
    <path d="M 1300,420 C 800,520 500,120 -100,320" stroke="#ffffff" stroke-width="5" fill="none" opacity="0.1" stroke-dasharray="20, 20"/>
    <path d="M 1300,450 C 800,550 500,150 -100,350" stroke="#ffffff" stroke-width="5" fill="none" opacity="0.1" stroke-dasharray="20, 20"/>
  </g>
  
  <!-- Speed lines -->
  <g opacity="0.2">
    <line x1="100" y1="150" x2="350" y2="150" stroke="#ffffff" stroke-width="3" stroke-dasharray="15, 10"/>
    <line x1="200" y1="250" x2="500" y2="250" stroke="#ffffff" stroke-width="3" stroke-dasharray="15, 10"/>
    <line x1="300" y1="350" x2="700" y2="350" stroke="#ffffff" stroke-width="3" stroke-dasharray="15, 10"/>
    <line x1="400" y1="450" x2="900" y2="450" stroke="#ffffff" stroke-width="3" stroke-dasharray="15, 10"/>
    
    <line x1="700" y1="200" x2="950" y2="200" stroke="#ffffff" stroke-width="3" stroke-dasharray="15, 10"/>
    <line x1="800" y1="300" x2="1100" y2="300" stroke="#ffffff" stroke-width="3" stroke-dasharray="15, 10"/>
    <line x1="600" y1="400" x2="850" y2="400" stroke="#ffffff" stroke-width="3" stroke-dasharray="15, 10"/>
  </g>
  
  <!-- Gradient overlay for better text contrast -->
  <rect width="1200" height="600" fill="url(#overlay)" />
  <defs>
    <linearGradient id="overlay" x1="0%" y1="0%" x2="100%" y2="0%">
      <stop offset="0%" style="stop-color:#091c3f;stop-opacity:0.8" />
      <stop offset="100%" style="stop-color:#091c3f;stop-opacity:0.6" />
    </linearGradient>
  </defs>
  
  <!-- TroubleShooter Logo Overlay -->
  <g opacity="0.6" transform="translate(600, 300) scale(0.6)">
    <!-- Question Mark Symbol -->
    <path d="M -100,0 C -120,0 -140,-20 -140,-40 C -140,-60 -120,-80 -100,-80 C -80,-80 -60,-60 -60,-40 C -60,-20 -70,-10 -80,0 L -80,30" stroke="#ffffff" stroke-width="15" stroke-linecap="round"/>
    <circle cx="-80" cy="50" r="8" fill="#ffffff"/>
    
    <!-- Trouble Text -->
    <path d="M -30,-70 L -30,-100 L 80,-100 L 80,-70 L 40,-70 L 40,0 L 10,0 L 10,-70 Z" fill="#ff3333"/>
    <path d="M 90,-100 L 120,-100 L 120,-50 C 120,-40, 130,-30, 140,-30 C 150,-30, 160,-40, 160,-50 L 160,-100 L 190,-100 L 190,-50 C 190,-20, 170,0, 140,0 C 110,0, 90,-20, 90,-50 Z" fill="#ff3333"/>
    <path d="M 200,-100 L 260,-100 C 280,-100, 300,-80, 300,-60 C 300,-40, 280,-20, 260,-20 L 230,-20 L 230,0 L 200,0 Z M 230,-70 L 230,-50 L 260,-50 C 265,-50, 270,-55, 270,-60 C 270,-65, 265,-70, 260,-70 Z" fill="#ff3333"/>
    <path d="M 310,-100 L 340,-100 L 340,-30 L 390,-30 L 390,0 L 310,0 Z" fill="#ff3333"/>
    <path d="M 400,-100 L 430,-100 L 430,0 L 400,0 Z" fill="#ff3333"/>
    <path d="M 440,0 L 440,-100 L 470,-100 L 500,-40 L 500,-100 L 530,-100 L 530,0 L 500,0 L 470,-60 L 470,0 Z" fill="#ff3333"/>
    
    <!-- Shooter Text -->
    <path d="M -30,60 C -50,60, -60,40, -60,30 C -60,20, -50,0, -30,0 C -10,0, 0,20, 0,30 L -30,30 C -35,30, -35,35, -30,35 C -25,35, -20,40, -20,45 C -20,50, -25,55, -30,55 C -35,55, -40,50, -40,45 L -60,45 C -60,55, -50,75, -30,75 C -10,75, 0,55, 0,45 C 0,35, -5,30, -15,25 C -5,20, 0,15, 0,5 C 0,-5, -10,-15, -30,-15 C -50,-15, -60,-5, -60,5 L -40,5 C -40,0, -35,-5, -30,-5 C -25,-5, -20,0, -20,5 C -20,10, -25,15, -30,15 C -35,15, -40,10, -50,10 Z" fill="#ffffff"/>
    <path d="M 10,-10 L 40,-10 L 40,30 L 80,30 L 80,60 L 10,60 Z" fill="#ffffff"/>
    <path d="M 90,-10 L 150,-10 C 170,-10, 190,10, 190,30 C 190,50, 170,70, 150,70 L 90,70 Z M 120,20 L 120,40 L 145,40 C 150,40, 155,35, 155,30 C 155,25, 150,20, 145,20 Z" fill="#ffffff"/>
    <path d="M 200,-10 L 250,-10 C 270,-10, 290,10, 290,30 C 290,50, 270,70, 250,70 L 200,70 Z M 230,20 L 230,40 L 245,40 C 250,40, 255,35, 255,30 C 255,25, 250,20, 245,20 Z" fill="#ffffff"/>
    <path d="M 300,-10 L 330,-10 L 330,40 L 380,40 L 380,70 L 300,70 Z" fill="#ffffff"/>
    <path d="M 390,-10 L 460,-10 L 460,20 L 420,20 L 420,30 L 460,30 L 460,60 L 390,60 L 390,50 L 430,50 L 430,40 L 390,40 Z" fill="#ffffff"/>
    <path d="M 470,-10 L 520,-10 L 520,20 L 500,20 L 500,60 L 470,60 L 470,20 L 450,20 L 450,60 L 420,60 L 420,20 L 400,20 L 400,-10 Z" fill="#ffffff"/>
  </g>
</svg>