<?xml version="1.0" encoding="UTF-8" standalone="no"?>
<svg xmlns="http://www.w3.org/2000/svg" width="1000" height="500" viewBox="0 0 1000 500" fill="none">
  <!-- Background -->
  <rect width="1000" height="500" fill="#102054"/>
  
  <!-- F1 Pit Crew (Stylized) -->
  <g opacity="0.6">
    <path d="M100 100 C 150 150, 200 120, 250 150" stroke="#0A1A4A" stroke-width="10"/>
    <path d="M300 120 C 350 170, 400 140, 450 170" stroke="#0A1A4A" stroke-width="10"/>
    <path d="M500 130 C 550 180, 600 150, 650 180" stroke="#0A1A4A" stroke-width="10"/>
    <path d="M700 110 C 750 160, 800 130, 850 160" stroke="#0A1A4A" stroke-width="10"/>
    <path d="M200 200 C 250 250, 300 220, 350 250" stroke="#0A1A4A" stroke-width="10"/>
    <path d="M400 220 C 450 270, 500 240, 550 270" stroke="#0A1A4A" stroke-width="10"/>
    <path d="M600 210 C 650 260, 700 230, 750 260" stroke="#0A1A4A" stroke-width="10"/>
    <path d="M150 300 C 200 350, 250 320, 300 350" stroke="#0A1A4A" stroke-width="10"/>
    <path d="M350 320 C 400 370, 450 340, 500 370" stroke="#0A1A4A" stroke-width="10"/>
    <path d="M550 310 C 600 360, 650 330, 700 360" stroke="#0A1A4A" stroke-width="10"/>
    <path d="M750 330 C 800 380, 850 350, 900 380" stroke="#0A1A4A" stroke-width="10"/>
  </g>
  
  <!-- Question Mark Symbol -->
  <path d="M380 250 C 360 250, 340 230, 340 210 C 340 190, 360 170, 380 170 C 400 170, 420 190, 420 210 C 420 230, 410 240, 400 250 L 400 280" stroke="#FFFFFF" stroke-width="15" stroke-linecap="round"/>
  <circle cx="400" cy="300" r="8" fill="#FFFFFF"/>
  
  <!-- Trouble Text -->
  <path d="M450 210 L 450 180 L 560 180 L 560 210 L 520 210 L 520 280 L 490 280 L 490 210 Z" fill="#FF4136"/>
  <path d="M570 180 L 600 180 L 600 230 C 600 240, 610 250, 620 250 C 630 250, 640 240, 640 230 L 640 180 L 670 180 L 670 230 C 670 260, 650 280, 620 280 C 590 280, 570 260, 570 230 Z" fill="#FF4136"/>
  <path d="M680 180 L 740 180 C 760 180, 780 200, 780 220 C 780 240, 760 260, 740 260 L 710 260 L 710 280 L 680 280 Z M 710 210 L 710 230 L 740 230 C 745 230, 750 225, 750 220 C 750 215, 745 210, 740 210 Z" fill="#FF4136"/>
  <path d="M790 180 L 820 180 L 820 250 L 870 250 L 870 280 L 790 280 Z" fill="#FF4136"/>
  <path d="M880 180 L 910 180 L 910 280 L 880 280 Z" fill="#FF4136"/>
  <path d="M920 280 L 920 180 L 950 180 L 980 240 L 980 180 L 1010 180 L 1010 280 L 980 280 L 950 220 L 950 280 Z" fill="#FF4136"/>
  
  <!-- Shooter Text -->
  <path d="M460 310 C 440 310, 430 290, 430 280 C 430 270, 440 250, 460 250 C 480 250, 490 270, 490 280 L 460 280 C 455 280, 455 285, 460 285 C 465 285, 470 290, 470 295 C 470 300, 465 305, 460 305 C 455 305, 450 300, 450 295 L 430 295 C 430 305, 440 325, 460 325 C 480 325, 490 305, 490 295 C 490 285, 485 280, 475 275 C 485 270, 490 265, 490 255 C 490 245, 480 235, 460 235 C 440 235, 430 245, 430 255 L 450 255 C 450 250, 455 245, 460 245 C 465 245, 470 250, 470 255 C 470 260, 465 265, 460 265 C 455 265, 450 260, 440 260 Z" fill="#FFFFFF"/>
  <path d="M500 240 L 530 240 L 530 280 L 570 280 L 570 310 L 500 310 Z" fill="#FFFFFF"/>
  <path d="M580 240 L 640 240 C 660 240, 680 260, 680 280 C 680 300, 660 320, 640 320 L 580 320 Z M 610 270 L 610 290 L 635 290 C 640 290, 645 285, 645 280 C 645 275, 640 270, 635 270 Z" fill="#FFFFFF"/>
  <path d="M690 240 L 740 240 C 760 240, 780 260, 780 280 C 780 300, 760 320, 740 320 L 690 320 Z M 720 270 L 720 290 L 735 290 C 740 290, 745 285, 745 280 C 745 275, 740 270, 735 270 Z" fill="#FFFFFF"/>
  <path d="M790 240 L 820 240 L 820 290 L 870 290 L 870 320 L 790 320 Z" fill="#FFFFFF"/>
  <path d="M880 240 L 950 240 L 950 270 L 910 270 L 910 280 L 950 280 L 950 310 L 880 310 L 880 300 L 920 300 L 920 290 L 880 290 Z" fill="#FFFFFF"/>
  <path d="M960 240 L 1010 240 L 1010 270 L 990 270 L 990 310 L 960 310 L 960 270 L 940 270 L 940 310 L 910 310 L 910 270 L 890 270 L 890 240 Z" fill="#FFFFFF"/>
</svg>