<svg xmlns="http://www.w3.org/2000/svg" viewBox="0 0 64 64" fill="none">
  <g>
    <path d="M8 4V60" stroke="#000000" stroke-width="3" stroke-linecap="round"/>
    <path d="M56 8H8" stroke="#000000" stroke-width="3" stroke-linecap="round"/>
    <rect x="8" y="8" width="48" height="32" fill="none"/>
    <rect x="8" y="8" width="6" height="4" fill="#000000"/>
    <rect x="14" y="8" width="6" height="4" fill="#FFFFFF"/>
    <rect x="20" y="8" width="6" height="4" fill="#000000"/>
    <rect x="26" y="8" width="6" height="4" fill="#FFFFFF"/>
    <rect x="32" y="8" width="6" height="4" fill="#000000"/>
    <rect x="38" y="8" width="6" height="4" fill="#FFFFFF"/>
    <rect x="44" y="8" width="6" height="4" fill="#000000"/>
    <rect x="50" y="8" width="6" height="4" fill="#FFFFFF"/>
    <rect x="8" y="12" width="6" height="4" fill="#FFFFFF"/>
    <rect x="14" y="12" width="6" height="4" fill="#000000"/>
    <rect x="20" y="12" width="6" height="4" fill="#FFFFFF"/>
    <rect x="26" y="12" width="6" height="4" fill="#000000"/>
    <rect x="32" y="12" width="6" height="4" fill="#FFFFFF"/>
    <rect x="38" y="12" width="6" height="4" fill="#000000"/>
    <rect x="44" y="12" width="6" height="4" fill="#FFFFFF"/>
    <rect x="50" y="12" width="6" height="4" fill="#000000"/>
    <rect x="8" y="16" width="6" height="4" fill="#000000"/>
    <rect x="14" y="16" width="6" height="4" fill="#FFFFFF"/>
    <rect x="20" y="16" width="6" height="4" fill="#000000"/>
    <rect x="26" y="16" width="6" height="4" fill="#FFFFFF"/>
    <rect x="32" y="16" width="6" height="4" fill="#000000"/>
    <rect x="38" y="16" width="6" height="4" fill="#FFFFFF"/>
    <rect x="44" y="16" width="6" height="4" fill="#000000"/>
    <rect x="50" y="16" width="6" height="4" fill="#FFFFFF"/>
    <rect x="8" y="20" width="6" height="4" fill="#FFFFFF"/>
    <rect x="14" y="20" width="6" height="4" fill="#000000"/>
    <rect x="20" y="20" width="6" height="4" fill="#FFFFFF"/>
    <rect x="26" y="20" width="6" height="4" fill="#000000"/>
    <rect x="32" y="20" width="6" height="4" fill="#FFFFFF"/>
    <rect x="38" y="20" width="6" height="4" fill="#000000"/>
    <rect x="44" y="20" width="6" height="4" fill="#FFFFFF"/>
    <rect x="50" y="20" width="6" height="4" fill="#000000"/>
    <rect x="8" y="24" width="6" height="4" fill="#000000"/>
    <rect x="14" y="24" width="6" height="4" fill="#FFFFFF"/>
    <rect x="20" y="24" width="6" height="4" fill="#000000"/>
    <rect x="26" y="24" width="6" height="4" fill="#FFFFFF"/>
    <rect x="32" y="24" width="6" height="4" fill="#000000"/>
    <rect x="38" y="24" width="6" height="4" fill="#FFFFFF"/>
    <rect x="44" y="24" width="6" height="4" fill="#000000"/>
    <rect x="50" y="24" width="6" height="4" fill="#FFFFFF"/>
    <rect x="8" y="28" width="6" height="4" fill="#FFFFFF"/>
    <rect x="14" y="28" width="6" height="4" fill="#000000"/>
    <rect x="20" y="28" width="6" height="4" fill="#FFFFFF"/>
    <rect x="26" y="28" width="6" height="4" fill="#000000"/>
    <rect x="32" y="28" width="6" height="4" fill="#FFFFFF"/>
    <rect x="38" y="28" width="6" height="4" fill="#000000"/>
    <rect x="44" y="28" width="6" height="4" fill="#FFFFFF"/>
    <rect x="50" y="28" width="6" height="4" fill="#000000"/>
    <rect x="8" y="32" width="6" height="4" fill="#000000"/>
    <rect x="14" y="32" width="6" height="4" fill="#FFFFFF"/>
    <rect x="20" y="32" width="6" height="4" fill="#000000"/>
    <rect x="26" y="32" width="6" height="4" fill="#FFFFFF"/>
    <rect x="32" y="32" width="6" height="4" fill="#000000"/>
    <rect x="38" y="32" width="6" height="4" fill="#FFFFFF"/>
    <rect x="44" y="32" width="6" height="4" fill="#000000"/>
    <rect x="50" y="32" width="6" height="4" fill="#FFFFFF"/>
    <rect x="8" y="36" width="6" height="4" fill="#FFFFFF"/>
    <rect x="14" y="36" width="6" height="4" fill="#000000"/>
    <rect x="20" y="36" width="6" height="4" fill="#FFFFFF"/>
    <rect x="26" y="36" width="6" height="4" fill="#000000"/>
    <rect x="32" y="36" width="6" height="4" fill="#FFFFFF"/>
    <rect x="38" y="36" width="6" height="4" fill="#000000"/>
    <rect x="44" y="36" width="6" height="4" fill="#FFFFFF"/>
    <rect x="50" y="36" width="6" height="4" fill="#000000"/>
  </g>
</svg>
