<svg xmlns="http://www.w3.org/2000/svg" viewBox="0 0 64 64" fill="none">
  <path d="M10 35.5C10 24.5 20 16 32 16C44 16 54 24.5 54 35.5C54 46.5 44 51 32 51C20 51 10 46.5 10 35.5Z" fill="#E10600"/>
  <path d="M27 16C24.5 19 10 24 10 35.5C10 43 14 47.5 21 49.5" stroke="#000000" stroke-width="2"/>
  <path d="M37 16C39.5 19 54 24 54 35.5C54 43 50 47.5 43 49.5" stroke="#000000" stroke-width="2"/>
  <path d="M10 35.5C10 24.5 20 16 32 16C44 16 54 24.5 54 35.5C54 46.5 44 51 32 51C20 51 10 46.5 10 35.5Z" stroke="#000000" stroke-width="2"/>
  <path d="M18 38H46" stroke="#000000" stroke-width="2"/>
  <path d="M22 44H42" stroke="#000000" stroke-width="2"/>
  <path d="M45 25L48 23" stroke="#000000" stroke-width="2" stroke-linecap="round"/>
  <path d="M19 25L16 23" stroke="#000000" stroke-width="2" stroke-linecap="round"/>
</svg>
